<?xml version="1.0" encoding="UTF-8"?>
<svg id="Layer_2" data-name="Layer 2" xmlns="http://www.w3.org/2000/svg" viewBox="0 0 300.99 81.19">
  <defs>
    <style>
      .cls-1 {
        fill: #000;
      }
    </style>
  </defs>
  <g id="Layer_1-2" data-name="Layer 1">
    <g>
      <polygon class="cls-1" points="269.24 0 237.51 31.75 237.51 79.49 300.99 79.49 300.99 31.75 269.24 0"/>
      <path class="cls-1" d="M60.32,43.06v36.43h-10.67v-5.66c-5.95,5.85-12.65,7.36-18.22,7.36C10.85,81.19,0,64.76,0,46.83,0,25.87,13.87,11.15,32.19,11.15c13.88,0,24.07,8.5,28.13,19.64l-11.89,4.82c-1.23-3.68-4.82-13.22-16.15-13.22-12.55,0-18.69,10.95-18.69,24.07,0,14.63,8.02,23.03,18.88,23.03,6.98,0,15.29-3.68,16.43-15.48h-16.62v-10.95h28.04Z"/>
      <path class="cls-1" d="M76.39,32.3v6.7c1.41-2.46,4.53-8.02,15.1-7.74v11.61c-2.45.1-6.7.19-10.2,2.83-4.81,3.69-4.9,8.5-4.9,16.33v17.46h-10.95v-47.19h10.95Z"/>
      <path class="cls-1" d="M139.09,68.92c-5.85,7.83-13.4,11.98-23.03,11.98-12.37,0-24.26-7.84-24.26-25.2,0-15.86,10.19-24.83,23.5-24.83,12.46,0,17.65,7.46,18.6,8.87,3.87,5.48,4.72,13.68,4.81,18.4h-34.93c1.33,7.46,5.95,11.71,13.41,11.71s10.85-4.53,12.27-6.51l9.62,5.57ZM126.26,49.85c-1.04-7.36-5.57-9.91-10.57-9.91-6.04,0-10.2,3.49-11.52,9.91h22.09Z"/>
      <path class="cls-1" d="M157.02,40.42v21.33c0,5.85,0,8.4,5.38,8.4,1.7,0,3.11-.09,4.71-.56v9.54c-3.39.56-5.67.75-8.21.75-2.36,0-10.29,0-12.46-5.76-.75-1.89-.75-4.91-.75-9.63v-24.06h-6.9v-8.12h6.9V15.59h11.32v16.71h10.1v8.12h-10.1Z"/>
      <path class="cls-1" d="M215.23,68.92c-5.86,7.83-13.4,11.98-23.03,11.98-12.37,0-24.27-7.84-24.27-25.2,0-15.86,10.2-24.83,23.51-24.83,12.46,0,17.65,7.46,18.59,8.87,3.87,5.48,4.72,13.68,4.82,18.4h-34.93c1.33,7.46,5.95,11.71,13.41,11.71s10.85-4.53,12.27-6.51l9.63,5.57ZM202.4,49.85c-1.04-7.36-5.57-9.91-10.57-9.91-6.04,0-10.2,3.49-11.52,9.91h22.09Z"/>
      <path class="cls-1" d="M230.83,12.85v66.64h-11.42V12.85h11.42Z"/>
    </g>
  </g>
</svg>